<?xml version="1.0" encoding="UTF-8"?>
<!-- Generator: wikimedia.svg.chart, 2013-08-28 -->
<!-- modify viewBox (x,y,dx,dy) for position (x,y) and size (dx,dy) -->
<svg id="head" xmlns="http://www.w3.org/2000/svg" xmlns:xlink="http://www.w3.org/1999/xlink" version="1.1" viewBox="-12,-40,63,42" width="800.025" height="600" font-family="Helvetica, Arial">

<!-- also a workaround for librsvg: a <rect> must be placed somewhere before text for a good display of text -->
<rect id="imagebackground" x="-15" y="-45" width="75" height="55" stroke="none" fill="white"/>
 
<title>plain text svg graphic</title>
<desc>   
  This svg graphic is to edit with an text editor.
  Please do not overwrite this file by saving with an image editor.
  ----------------
 All values are scaled as log10.
</desc>

<style id="styles" type="text/css"> <![CDATA[
  .graphgeneral {         /*-- general look of graphs and markers, e.g. in legend --*/
    stroke-width:    0.085;
    fill:            none;
    stroke-linejoin: round;
    stroke-linecap:  round;
  }
  .graphgeneralstretch {  /*-- general look of graphs and markers on a stretched chart --*/ 
    stroke-width:    0.036;
    fill:            none;
    stroke-linejoin: round;
    stroke-linecap:  round;
  } 
  .graph1lineblank { /*-- look of graph 1 --*/
    stroke:           #004586;
  }
  .graph1line {
    stroke:           #004586; 
    marker-start:url(#graph1markerstretch); marker-mid:url(#graph1markerstretch); marker-end:url(#graph1markerstretch);
  } 
  .graph1marker {    /*-- look of marker 1 --*/
    stroke:           #004586;
    fill:             #004586;   
  }   
  .graph2lineblank { /*-- look of graph 2 --*/
    stroke:           #FF420E;
  }
  .graph2line {
    stroke:           #FF420E; 
    marker-start:url(#graph2markerstretch); marker-mid:url(#graph2markerstretch); marker-end:url(#graph2markerstretch);
  } 
  .graph2marker {    /*-- look of marker 2 --*/
    stroke:           #FF420E;
    fill:             #FF420E;   
  }   
  .graph3lineblank { /*-- look of graph 3 --*/
    stroke:           #FFD320;
  }
  .graph3line {
    stroke:           #FFD320; 
    marker-start:url(#graph3markerstretch); marker-mid:url(#graph3markerstretch); marker-end:url(#graph3markerstretch);
  } 
  .graph3marker {    /*-- look of marker 3 --*/
    stroke:           #FFD320;
    fill:             #FFD320;   
  } 
  .graph4lineblank { /*-- look of graph 4 --*/
    stroke:          rgb(00%, 60%, 60%);
  }
  .graph4line {
    stroke:          rgb(00%, 60%, 60%); 
  }  
  .graph5lineblank { /*-- look of graph 5 --*/
    stroke:          rgb(60%, 00%, 60%);
  }
  .graph5line {
    stroke:          rgb(60%, 00%, 60%); 
  }  
  .graph6lineblank { /*-- look of graph 6 --*/
    stroke:          rgb(60%, 60%, 00%);
  }
  .graph6line {
    stroke:          rgb(60%, 60%, 00%); 
  }  
  .graph7lineblank { /*-- look of graph 7 --*/
    stroke:          rgb(00%, 00%, 30%);
  }
  .graph7line {
    stroke:          rgb(00%, 00%, 30%); 
  }  
  .graph8lineblank { /*-- look of graph 8 --*/
    stroke:          rgb(00%, 30%, 00%);
  }
  .graph8line {
    stroke:          rgb(00%, 30%, 00%); 
  }  
  .axisline {
    stroke:         black;
    stroke-width:   0.142;
    stroke-linecap: round;
  }
  .titletext {
    font-size:    1.504px;       
  }
  .axistext-x {
    font-size:    1.367px;
  }
  .axistext-x-number {
    font-size:    1.367px;
  }
  .axistext-y {
    font-size:    1.367px;
  }
  .axismark-main {
    stroke:       black;
    stroke-width: 0.099;
  }
  .axismark-second {
    stroke:       black;
    stroke-width: 0.099;
  }  
  .legendtext {
    font-size:    1.367px;
    text-anchor:  start;
  }
 
  .graphmarker {     
    stroke-width:    0.142;
    fill:            white;
    stroke-linejoin: round;
  } 
      
  .gridline {
    stroke:       black;
    stroke-width: 0.071;
  }  
]]></style>

<defs>
  <!--== axis dashes definitions ==-->
  <!-- x-axis mark, modify "height" -->
  <pattern id="x-axismark-main" x="0" width="7.5" height="0.8" patternUnits="userSpaceOnUse"> 
    <line x1="0" y1="-1" x2="0" y2="0.8" class="axismark-main"/>
  </pattern>
 
  <!-- x-axis 2nd mark, modify "width" and "x1"-->
  <pattern id="x-axismark-second" x="0" width="1.5" height="0.8" patternUnits="userSpaceOnUse"> 
    <line x1="0" y1="-1" x2="0" y2="0.8" class="axismark-second"/>
  </pattern>
 
   
  <!-- x-axis gridline vertical, modify "width" -->
  <pattern id="x-gridline" height="22" width="7.5" patternUnits="userSpaceOnUse">  
    <line x1="3" x2="3" y1="0" y2="22" class="gridline"/>
  </pattern>
 
   
  <!-- y-axis gridline horizontal, modify "height" -->
  <pattern id="y-gridline" width="54" height="3.5" patternUnits="userSpaceOnUse">  
    <line x1="0" x2="54" y1="0" y2="0" class="gridline"/>
  </pattern>

  <!-- y-axis mark, modify "width" -->
  <pattern id="y-axismark-main" width="0.8" height="3.5" patternUnits="userSpaceOnUse">
    <line x1="-1" y1="0" x2="0.8" y2="0" class="axismark-main"/>    
  </pattern>

  <!-- y-axis2 mark, modify "width" -->
  <pattern id="y-axis2mark-main" width="0.4" height="10" patternUnits="userSpaceOnUse">
    <line x1="-1" y1="0" x2="11" y2="0" class="axismark-main"/>    
  </pattern>

  <!--== graph marker ==-->
  <g class="graphmarker">
    <g id="graph1markershape" transform="translate(0.26,0.26)"><rect x="-0.128" y="-0.128" width="0.255" height="0.255" fill="x"/></g>  <!-- regular square --> 
    <marker id="graph1marker" class="graph1marker" refX="0.26" refY="0.26" viewBox="0 0 0.51 0.51" markerUnits="userSpaceOnUse" markerWidth="0.51" markerHeight="0.51">
      <use xlink:href="#graph1markershape"/>  
    </marker>
    <marker id="graph1markerstretch" class="graph1marker" refX="0.26" refY="0.109" viewBox="0 0 0.51 0.51" markerUnits="userSpaceOnUse" markerWidth="0.51" markerHeight="0.51">
      <use transform="scale(1, 0.429)" xlink:href="#graph1markershape"/>  
    </marker>
  
    <g id="graph2markershape" transform="translate(0.26,0.26)"><rect transform="rotate(45)" x="-0.128" y="-0.128" width="0.255" height="0.255" fill="x"/></g>  <!-- tilted square --> 
    <marker id="graph2marker" class="graph2marker" refX="0.26" refY="0.26" viewBox="0 0 0.51 0.51" markerUnits="userSpaceOnUse" markerWidth="0.51" markerHeight="0.51">
      <use xlink:href="#graph2markershape"/>  
    </marker>
    <marker id="graph2markerstretch" class="graph2marker" refX="0.26" refY="0.109" viewBox="0 0 0.51 0.51" markerUnits="userSpaceOnUse" markerWidth="0.51" markerHeight="0.51">
      <use transform="scale(1, 0.429)" xlink:href="#graph2markershape"/>  
    </marker>
  
    <g id="graph3markershape" transform="translate(0.26,0.26)"><polygon points="-0.15,0.15 0.15,0.15 0,-0.15" fill="x"/></g>  <!-- tilted triangle --> 
    <marker id="graph3marker" class="graph3marker" refX="0.26" refY="0.26" viewBox="0 0 0.51 0.51" markerUnits="userSpaceOnUse" markerWidth="0.51" markerHeight="0.51">
      <use xlink:href="#graph3markershape"/>  
    </marker>
    <marker id="graph3markerstretch" class="graph3marker" refX="0.26" refY="0.109" viewBox="0 0 0.51 0.51" markerUnits="userSpaceOnUse" markerWidth="0.51" markerHeight="0.51">
      <use transform="scale(1, 0.429)" xlink:href="#graph3markershape"/>  
    </marker>
      
  </g> 
</defs> 

<g transform="scale(1, -1)">  
   
  <rect id="x-gridline-area" x="0.3" y="0" width="48" height="38.5" fill="url(#x-gridline)"/>
   
  <rect id="y-gridline-area" x="0" y="0.3" width="48" height="39.3" fill="url(#y-gridline)"/>

  <!-- x axis, modify "x2" and "width" -->
  <rect id="x-axismark2" x="-0.2" y="-0.4" width="49" height="0.38" fill="url(#x-axismark-second)"/>
  <rect id="x-axismark" x="-0.2" y="-0.7" width="50" height="0.7" fill="url(#x-axismark-main)"/>
  <line id="x-axis" x1="0" y1="0" x2="48" y2="0" class="axisline"/>

  <!-- y axis, modify "height" -->
  <rect id="y-axismark" x="-0.7" y="-0.2" width="0.7" height="39.5" fill="url(#y-axismark-main)"/>
  <line id="y-axis" x1="0" y1="0" x2="0" y2="38.5" class="axisline"/> 
</g>

<!-- x axis text, modify each value -->
<g id="axistext-x" class="axistext-x-number" transform="translate(0, 1.9)" text-anchor="middle"> 
  <text x="3"> <tspan dy="-0.277px"/>1995</text>
  <text x="10.5"> <tspan dy="-0.277px"/>2000</text>
  <text x="18"> <tspan dy="-0.277px"/>2005</text>
  <text x="25.5"> <tspan dy="-0.277px"/>2010</text>
  <text x="33"> <tspan dy="-0.277px"/>2015</text>
  <text x="40.5"> <tspan dy="-0.277px"/>2020</text>
  <text x="48"> <tspan dy="0.277px"/>2025</text>
  <text id="title-x" class="axistext-x" x="20.25" y="1.8"> <tspan dy="-0.277px"/></text> 
</g>

<!-- y axis text, modify each value -->
<g id="axistext-y" class="axistext-y" text-anchor="end" transform="translate(-1.2, 0.6)"> 
  <text y="-0"> <tspan dy="-0.277px"/>0.1</text>
  <text y="-3.5"> <tspan dy="-0.277px"/>1</text>
  <text y="-7"> <tspan dy="-0.277px"/>10</text>
  <text y="-10.5"> <tspan dy="-0.277px"/>100</text>
  <text y="-14"> <tspan dy="-0.277px"/>1.000</text>
  <text y="-17.5"> <tspan dy="-0.277px"/>10.000</text>
  <text y="-21"> <tspan dy="-0.277px"/>100.000</text>
  <text y="-24.5"> <tspan dy="-0.277px"/>1.000.000</text>
  <text y="-28"> <tspan dy="-0.277px"/>10.000.000</text>
  <text y="-31.5"> <tspan dy="-0.277px"/>100.000.000</text>
  <text y="-35"> <tspan dy="-0.277px"/>1.000.000.000</text>
  <text y="-38.5"> <tspan dy="-0.277px"/>10.000.000.000</text>
  <text id="title-y" x="19.3" y="-2.5" transform="rotate(-90)" text-anchor="middle"> <tspan dy="-0.277px"/></text>
</g> 

<!-- legend -->
<g id="legend" class="legendtext" transform="translate(37, -8)">
  <g id="legend-background" class="axismark-main">
    <rect x="0" y="0" fill="white" stroke="none" width="7" height="5.2"/>
  </g>
  <g class="graphgeneral"><g class="graph1line">
    <polyline id="legend-line1" points="0.81 1.05 2.84 1.05" marker-start="none" marker-end="none"/>
      <path id="legend-marker1" transform="scale(1 -1)" stroke-width="0.00001" d="M 1.82 -1.05 h 0" marker-start="url(#graph1marker)" marker-end="none"/>
  </g></g>
  <text id="legend-text1" x="3.6" y="1.46"> <tspan dy="-0.277px"/>Sum</text> 
  <g class="graphgeneral"><g class="graph2line">
    <polyline id="legend-line2" points="0.81 2.56 2.84 2.56" marker-start="none" marker-end="none"/>
      <path id="legend-marker2" transform="scale(1 -1)" stroke-width="0.00001" d="M 1.82 -2.56 h 0" marker-start="url(#graph2marker)" marker-end="none"/>
  </g></g>
  <text id="legend-text2" x="3.6" y="2.96"> <tspan dy="-0.277px"/>Top</text> 
  <g class="graphgeneral"><g class="graph3line">
    <polyline id="legend-line3" points="0.81 4.06 2.84 4.06" marker-start="none" marker-end="none"/>
      <path id="legend-marker3" transform="scale(1 -1)" stroke-width="0.00001" d="M 1.82 -4.06 h 0" marker-start="url(#graph3marker)" marker-end="none"/>
  </g></g>
  <text id="legend-text3" x="3.6" y="4.47"> <tspan dy="-0.277px"/>#500</text>
</g>  
 
<!--====== graph data with origin values, as base-10 logarithm of published performance value in GFlops ======-->
<!-- modify displacement "translate" -->
<defs>
<g id="graphs">      
  <!-- #500 -->
  <polyline id="graph3" points="       1993.747     -0.328     1994.328     -0.076     1994.747     0.064     1995.328     0.292     1995.747     0.396     1996.328     0.520     1996.747     0.665     1997.328     0.885     1997.747     0.978     1998.328     1.127     1998.747     1.234     1999.328     1.393     1999.747     1.520     2000.328     1.642     2000.747     1.743     2001.328     1.831     2001.747     1.975     2002.328     2.128     2002.747     2.292     2003.328     2.383     2003.747     2.578     2004.328     2.783     2004.747     2.924     2005.328     3.067     2005.747     3.216     2006.328     3.307     2006.747     3.437     2007.328     3.605     2007.747     3.774     2008.328     3.954     2008.747     4.100     2009.328     4.233     2009.747     4.303     2010.328     4.392     2010.747     4.493     2011.328     4.604     2011.747     4.707     2012.328     4.784     2012.747     4.883     2013.328     4.985     2013.747     5.071     2014.328     5.126     2014.747     5.184     2015.328     5.216     2015.747     5.315     2016.328     5.457     2016.747     5.543     2017.328     5.636     2017.747     5.739     2018.328     5.855     2018.747  5.942     2019.328     6.009     2019.747  6.058     2020.328     6.089   2020.747  6.120     2021.328  6.180"/> 
  <!-- Top -->
  <polyline id="graph2" points="       1993.747     2.093     1994.328     2.157     1994.747     2.230     1995.328     2.230     1995.747     2.230     1996.328     2.343     1996.747     2.566     1997.328     3.029     1997.747     3.126     1998.328     3.126     1998.747     3.126     1999.328     3.327     1999.747     3.376     2000.328     3.376     2000.747     3.694     2001.328     3.859     2001.747     3.859     2002.328     4.555     2002.747     4.555     2003.328     4.555     2003.747     4.555     2004.328     4.555     2004.747     4.850     2005.328     5.136     2005.747     5.448     2006.328     5.448     2006.747     5.448     2007.328     5.448     2007.747     5.680     2008.328     6.011     2008.747     6.043     2009.328     6.043     2009.747     6.245     2010.328     6.245     2010.747     6.409     2011.328     6.912     2011.747     7.022     2012.328     7.213     2012.747     7.245     2013.328     7.530     2013.747     7.530     2014.328     7.530     2014.747     7.530     2015.328     7.530     2015.747     7.530     2016.328     7.969     2016.747     7.969     2017.328     7.969     2017.747     7.969     2018.328     8.087     2018.747  8.157     2019.328     8.172     2019.747  8.172     2020.328     8.619   2020.747  8.645     2021.328  8.645"/>
  <!-- Sum -->
  <polyline id="graph1" stroke-width="0.036" points="       1993.747     3.174     1994.328     3.365     1994.747     3.437     1995.328     3.594     1995.747     3.680     1996.328     3.770     1996.747     3.902     1997.328     4.109     1997.747     4.228     1998.328     4.355     1998.747     4.468     1999.328     4.592     1999.747     4.707     2000.328     4.808     2000.747     4.945     2001.328     5.035     2001.747     5.130     2002.328     5.347     2002.747     5.465     2003.328     5.568     2003.747     5.722     2004.328     5.910     2004.747     6.053     2005.328     6.229     2005.747     6.362     2006.328     6.446     2006.747     6.548     2007.328     6.695     2007.747     6.844     2008.328     7.085     2008.747     7.240     2009.328     7.355     2009.747     7.447     2010.328     7.511     2010.747     7.641     2011.328     7.770     2011.747     7.870     2012.328     8.091     2012.747     8.210     2013.328     8.350     2013.747     8.398     2014.328     8.437     2014.747     8.489     2015.328     8.555     2015.747     8.621     2016.328     8.754     2016.747     8.827     2017.328     8.874     2017.747     8.927     2018.328     9.083     2018.747  9.150     2019.328     9.193     2019.747  9.217     2020.328     9.348   2020.747  9.385     2021.328  9.445"/>
</g>
</defs>
 
<g class="graphgeneralstretch" transform="scale(1.5, -3.5) translate(-1993, 1)"> 
  <!-- graph 3 --> 
  <use id="graphuse3p2" transform="translate(0.024, 0)" class="graph3lineblank" xlink:href="#graph3"/>  
  <use id="graphuse3m2" transform="translate(-0.024, 0)" class="graph3lineblank" xlink:href="#graph3"/> 
  <use id="graphuse3p3" transform="translate(-0.012, 0)" class="graph3lineblank" xlink:href="#graph3"/>  
  <use id="graphuse3m3" transform="translate(0.012, 0)" class="graph3lineblank" xlink:href="#graph3"/> 
  <use id="graphuse3-1" transform="translate(0, 0)" class="graph3line" xlink:href="#graph3"/>
  <!-- graph 2 --> 
  <use id="graphuse2p2" transform="translate(0.024, 0)" class="graph2lineblank" xlink:href="#graph2"/>  
  <use id="graphuse2m2" transform="translate(-0.024, 0)" class="graph2lineblank" xlink:href="#graph2"/> 
  <use id="graphuse2p3" transform="translate(-0.012, 0)" class="graph2lineblank" xlink:href="#graph2"/>  
  <use id="graphuse2m3" transform="translate(0.012, 0)" class="graph2lineblank" xlink:href="#graph2"/> 
  <use id="graphuse2-1" transform="translate(0, 0)" class="graph2line" xlink:href="#graph2"/>
  <!-- graph 1 --> 
  <use id="graphuse1p2" transform="translate(0.024, 0)" class="graph1lineblank" xlink:href="#graph1"/>  
  <use id="graphuse1m2" transform="translate(-0.024, 0)" class="graph1lineblank" xlink:href="#graph1"/> 
  <use id="graphuse1p3" transform="translate(-0.012, 0)" class="graph1lineblank" xlink:href="#graph1"/>  
  <use id="graphuse1m3" transform="translate(0.012, 0)" class="graph1lineblank" xlink:href="#graph1"/> 
  <use id="graphuse1-1" transform="translate(0, 0)" class="graph1line" xlink:href="#graph1"/>
</g>
</svg>