<?xml version="1.0" encoding="UTF-8" standalone="no"?>
<svg version="1.1"
     baseProfile="full"
     xmlns="http://www.w3.org/2000/svg"
     viewBox="0 0 741 111"
     width="741px" height="111px">
  <text x="42.5" y="14.5" font-size="13px" font-family="Helvetica" text-anchor="middle">x0</text>
  <text x="87.5" y="14.5" font-size="13px" font-family="Helvetica" text-anchor="middle">x1</text>
  <text x="132.5" y="14.5" font-size="13px" font-family="Helvetica" text-anchor="middle">x2</text>
  <text x="177.5" y="14.5" font-size="13px" font-family="Helvetica" text-anchor="middle">x3</text>
  <text x="222.5" y="14.5" font-size="13px" font-family="Helvetica" text-anchor="middle">x4</text>
  <text x="267.5" y="14.5" font-size="13px" font-family="Helvetica" text-anchor="middle">x5</text>
  <text x="312.5" y="14.5" font-size="13px" font-family="Helvetica" text-anchor="middle">x6</text>
  <text x="357.5" y="14.5" font-size="13px" font-family="Helvetica" text-anchor="middle">x7</text>
  <text x="402.5" y="14.5" font-size="13px" font-family="Helvetica" text-anchor="middle">x8</text>
  <text x="447.5" y="14.5" font-size="13px" font-family="Helvetica" text-anchor="middle">x9</text>
  <text x="492.5" y="14.5" font-size="13px" font-family="Helvetica" text-anchor="middle">xA</text>
  <text x="537.5" y="14.5" font-size="13px" font-family="Helvetica" text-anchor="middle">xB</text>
  <text x="582.5" y="14.5" font-size="13px" font-family="Helvetica" text-anchor="middle">xC</text>
  <text x="627.5" y="14.5" font-size="13px" font-family="Helvetica" text-anchor="middle">xD</text>
  <text x="672.5" y="14.5" font-size="13px" font-family="Helvetica" text-anchor="middle">xE</text>
  <text x="717.5" y="14.5" font-size="13px" font-family="Helvetica" text-anchor="middle">xF</text>
  <path d="M 20 65 v -45 h 720 m 0 45 v 45 h -720" fill="none" stroke="#000000" stroke-linecap="square"/>
  <text x="9.5" y="47.5" font-size="13px" font-family="Helvetica" text-anchor="middle">0x</text>
  <g>
    <rect x="20" y="20" width="45" height="45" fill="#d8d8d8" stroke="#000000"/>
    <text x="42.5" y="40.5" font-size="10px" font-family="Helvetica" text-anchor="middle">LDIR_</text>
    <text x="42.5" y="52.5" font-size="10px" font-family="Helvetica" text-anchor="middle">Ord</text>
  </g>
  <g>
    <rect x="65" y="20" width="450" height="45" fill="#fcd5b4" stroke="#000000"/>
    <text x="290" y="46" font-size="10px" font-family="Helvetica" text-anchor="middle">LDIR_Name1</text>
  </g>
  <g>
    <rect x="515" y="20" width="45" height="45" fill="#b6dde8" stroke="#000000"/>
    <text x="537.5" y="40.5" font-size="10px" font-family="Helvetica" text-anchor="middle">LDIR_</text>
    <text x="537.5" y="52.5" font-size="10px" font-family="Helvetica" text-anchor="middle">Attr</text>
  </g>
  <g>
    <rect x="560" y="20" width="45" height="45" fill="#e6b9b8" stroke="#000000"/>
    <text x="582.5" y="40.5" font-size="10px" font-family="Helvetica" text-anchor="middle">LDIR_</text>
    <text x="582.5" y="52.5" font-size="10px" font-family="Helvetica" text-anchor="middle">Type</text>
  </g>
  <g>
    <rect x="605" y="20" width="45" height="45" fill="#c2d69a" stroke="#000000"/>
    <text x="627.5" y="40.5" font-size="10px" font-family="Helvetica" text-anchor="middle">LDIR_</text>
    <text x="627.5" y="52.5" font-size="10px" font-family="Helvetica" text-anchor="middle">Chksum</text>
  </g>
  <g>
    <path d="M 740 20 h -90 v 45 h 90" fill="#fcd5b4" stroke="#000000" stroke-linecap="square"/>
    <path d="M 740 19.5 v 46" fill="none" stroke="#000000" stroke-dasharray="1 1"/>
  </g>
  <text x="9.5" y="92.5" font-size="13px" font-family="Helvetica" text-anchor="middle">1x</text>
  <g>
    <path d="M 20 65 h 450 v 45 h -450" fill="#fcd5b4" stroke="#000000" stroke-linecap="square"/>
    <path d="M 20 64.5 v 46" fill="none" stroke="#000000" stroke-dasharray="1 1"/>
    <text x="255" y="91" font-size="10px" font-family="Helvetica" text-anchor="middle">LDIR_Name2</text>
  </g>
  <g>
    <rect x="470" y="65" width="90" height="45" fill="#ccc0da" stroke="#000000"/>
    <text x="515" y="91" font-size="10px" font-family="Helvetica" text-anchor="middle">LDIR_FstClusLO</text>
  </g>
  <g>
    <rect x="560" y="65" width="180" height="45" fill="#fcd5b4" stroke="#000000"/>
    <text x="650" y="91" font-size="10px" font-family="Helvetica" text-anchor="middle">LDIR_Name3</text>
  </g>
</svg>